<?xml version="1.0" encoding="UTF-8" standalone="no"?>
<!-- Created with Inkscape (http://www.inkscape.org/) -->

<svg
   xmlns:dc="http://purl.org/dc/elements/1.1/"
   xmlns:cc="http://creativecommons.org/ns#"
   xmlns:rdf="http://www.w3.org/1999/02/22-rdf-syntax-ns#"
   xmlns:svg="http://www.w3.org/2000/svg"
   xmlns="http://www.w3.org/2000/svg"
   xmlns:xlink="http://www.w3.org/1999/xlink"
   xmlns:sodipodi="http://sodipodi.sourceforge.net/DTD/sodipodi-0.dtd"
   xmlns:inkscape="http://www.inkscape.org/namespaces/inkscape"
   version="1.0"
   width="124"
   height="83"
   id="svg1894"
   inkscape:version="0.48.4 r9939"
   sodipodi:docname="C-flat-major_a-flat-minor.svg">
  <metadata
     id="metadata5609">
    <rdf:RDF>
      <cc:Work
         rdf:about="">
        <dc:format>image/svg+xml</dc:format>
        <dc:type
           rdf:resource="http://purl.org/dc/dcmitype/StillImage" />
        <dc:title></dc:title>
      </cc:Work>
    </rdf:RDF>
  </metadata>
  <sodipodi:namedview
     pagecolor="#ffffff"
     bordercolor="#666666"
     borderopacity="1"
     objecttolerance="10"
     gridtolerance="10"
     guidetolerance="10"
     inkscape:pageopacity="0"
     inkscape:pageshadow="2"
     inkscape:window-width="717"
     inkscape:window-height="864"
     id="namedview5607"
     showgrid="false"
     inkscape:zoom="3.1466667"
     inkscape:cx="62.745614"
     inkscape:cy="73.823462"
     inkscape:window-x="531"
     inkscape:window-y="180"
     inkscape:window-maximized="0"
     inkscape:current-layer="svg1894" />
  <defs
     id="defs1896" />
  <g
     transform="matrix(0.1493677,0,0,0.09957846,0.86760824,0.87657509)"
     id="g1934">
    <path
       d="m 4.2160405,395.78396 791.5679095,0"
       style="fill:none;stroke:#131516;stroke-width:6.88475847"
       id="path11"
       inkscape:connector-curvature="0" />
    <path
       d="m 4.2160405,635.78396 791.5679095,0"
       style="fill:none;stroke:#131516;stroke-width:6.88475847"
       id="path13"
       inkscape:connector-curvature="0" />
    <path
       d="m 4.2160405,515.78396 791.5679095,0"
       style="fill:none;stroke:#131516;stroke-width:6.88475847"
       id="path15"
       inkscape:connector-curvature="0" />
    <path
       d="m 4.2160405,275.78396 791.5679095,0"
       style="fill:none;stroke:#131516;stroke-width:6.88475847"
       id="path17"
       inkscape:connector-curvature="0" />
    <path
       d="m 4.2160405,155.78396 791.5679095,0"
       style="fill:none;stroke:#131516;stroke-width:6.88475847"
       id="path19"
       inkscape:connector-curvature="0" />
    <path
       d="m 751.57871,154.32213 0,482.92366"
       style="fill:none;stroke:#000000;stroke-width:6.53197336;stroke-linecap:round;stroke-linejoin:miter;stroke-miterlimit:4;stroke-opacity:1;stroke-dasharray:none"
       id="path4032"
       inkscape:connector-curvature="0" />
    <rect
       width="41.052635"
       height="488"
       x="1156.8394"
       y="351.78397"
       transform="matrix(0.6666667,0,0,1,1.3934225e-6,-200)"
       style="fill:#000000;fill-opacity:1;stroke:none"
       id="rect4030" />
  </g>
  <path
     d="m 20.95061,45.997775 c -1.241447,0.254592 -2.391947,0.935781 -3.490064,2.020884 -1.099487,1.10502 -1.688043,2.365386 -1.784256,3.759788 -0.06048,0.876486 0.170329,1.893158 0.676571,2.98888 0.504865,1.11565 1.329878,1.953156 2.433723,2.529691 0.373905,0.105859 0.539877,0.317462 0.520635,0.596348 -0.0068,0.0996 -0.153526,0.189554 -0.498489,0.245813 -1.785524,-0.58354 -3.215817,-1.662966 -4.273656,-3.197052 -1.056465,-1.553995 -1.540067,-3.268625 -1.448055,-5.183707 0.201476,-2.047645 0.95245,-3.91726 2.251546,-5.588949 1.320443,-1.69022 2.944612,-2.839097 4.872511,-3.446623 L 19.321182,33.55613 c -3.251089,2.337593 -5.92996,4.814746 -8.059336,7.469917 -2.1280021,2.635252 -3.3339734,5.574301 -3.637886,8.815769 -0.060399,1.456925 0.1415415,2.891916 0.6071971,4.285066 0.4642805,1.413067 1.2177433,2.705984 2.2576379,3.91859 2.101132,2.406659 4.955414,3.784486 8.521539,4.150642 1.223578,0.0048 2.536653,-0.1252 3.959192,-0.387318 L 20.95061,45.997775 z m 1.451479,-0.1 2.058129,15.533522 c 3.160374,-1.022867 4.883504,-3.605995 5.166646,-7.709543 -0.08488,-1.386885 -0.399034,-2.649495 -1.002369,-3.791945 -0.581991,-1.160991 -1.400132,-2.098103 -2.474388,-2.812702 -1.074255,-0.7146 -2.310282,-1.120132 -3.748018,-1.219332 z M 19.737984,24.898403 c 0.686451,-0.352945 1.493361,-0.997784 2.379422,-1.917386 0.884685,-0.899672 1.761771,-1.980004 2.608541,-3.202536 0.868115,-1.241082 1.577854,-2.513097 2.129221,-3.816056 0.549991,-1.28303 0.856238,-2.52285 0.935957,-3.678213 0.03436,-0.498005 0.02878,-0.998767 -0.04082,-1.443897 -0.03039,-0.722636 -0.211563,-1.2955567 -0.56485,-1.7002114 -0.354662,-0.3847453 -0.820163,-0.6170091 -1.419218,-0.6583409 -1.198113,-0.082683 -2.327271,0.5799752 -3.387471,1.9879253 -0.826803,1.22391 -1.550288,2.695126 -2.107801,4.377944 -0.578854,1.701359 -0.95665,3.39658 -1.116165,5.126879 -0.03622,1.978973 0.171936,3.614553 0.583182,4.923892 z m -1.337737,1.068556 c -0.675922,-3.289065 -0.948348,-6.610325 -0.817281,-9.963791 0.168412,-2.149995 0.526887,-4.146777 1.075427,-5.990337 0.528571,-1.8449356 1.218991,-3.4185125 2.074009,-4.7605579 0.835049,-1.3434236 1.766541,-2.339945 2.774515,-2.9909428 0.90263,-0.5781922 1.545021,-0.8741257 1.884487,-0.8507085 0.259589,0.017924 0.472372,0.1326781 0.659688,0.3257398 0.187315,0.1930519 0.426288,0.5097621 0.718297,0.9302112 2.143971,3.5304631 3.061693,7.6768362 2.734568,12.4178242 -0.155314,2.250978 -0.606033,4.42152 -1.356282,6.5714 -0.728903,2.13134 -1.730496,4.143781 -3.002028,5.997506 -1.292874,1.872257 -2.767564,3.471776 -4.445416,4.817098 l 1.075913,7.960136 c 0.885488,-0.03903 1.490042,-0.07728 1.829507,-0.05387 1.517611,0.104712 2.853479,0.517125 4.067515,1.241381 1.214035,0.724246 2.233236,1.655209 3.036256,2.81144 0.804395,1.136311 1.398108,2.418204 1.781141,3.845679 0.363063,1.426097 0.522319,2.898181 0.417859,4.412106 -0.162187,2.350574 -0.929654,4.459238 -2.301028,6.306064 -1.371374,1.846835 -3.326036,3.133017 -5.88533,3.877124 0.0924,0.987107 0.274372,2.420729 0.568635,4.262399 0.272919,1.860201 0.472111,3.335041 0.597576,4.424499 0.125464,1.089467 0.133866,2.130828 0.06376,3.146758 -0.108581,1.573692 -0.584197,2.941912 -1.428219,4.124604 -0.863991,1.181315 -1.968329,2.065829 -3.332984,2.652174 -1.344689,0.587733 -2.80579,0.827171 -4.363337,0.719695 -2.196537,-0.151557 -4.070908,-0.901345 -5.624488,-2.229446 -1.5522043,-1.34803 -2.3167396,-3.062023 -2.25092,-5.179081 0.1245052,-0.93211 0.4046364,-1.793429 0.861735,-2.602526 0.457099,-0.809078 1.042981,-1.449167 1.777618,-1.91886 0.716041,-0.490999 1.553995,-0.713395 2.496639,-0.708394 0.778774,0.05377 1.502491,0.323832 2.172525,0.790383 0.648693,0.485083 1.167954,1.10134 1.536438,1.867323 0.348515,0.764604 0.511815,1.596483 0.451339,2.472961 -0.08109,1.175301 -0.549187,2.143741 -1.404283,2.905359 -0.855095,0.761597 -1.902355,1.109666 -3.120436,1.025614 l -0.459276,-0.03171 c 0.696305,1.248936 1.931681,1.954642 3.708885,2.077268 0.898583,0.06196 1.830881,-0.07382 2.774176,-0.368999 0.964635,-0.313732 1.77777,-0.758003 2.480715,-1.349976 0.702946,-0.591982 1.188986,-1.238961 1.418183,-1.943674 0.39582,-0.793303 0.633913,-1.917723 0.7315,-3.332053 0.06597,-0.956163 0.03211,-1.919217 -0.08163,-2.887792 -0.115115,-0.948636 -0.308084,-2.222898 -0.580279,-3.802844 -0.273567,-1.560028 -0.470659,-2.774532 -0.574053,-3.602276 -1.218732,0.216132 -2.467777,0.290074 -3.765733,0.200511 -2.176571,-0.150174 -4.203094,-0.730331 -6.078193,-1.76039 C 11.422859,60.791941 9.8107489,59.439777 8.443033,57.744209 7.0952871,56.05002 6.0807819,54.178679 5.4022669,52.090328 4.7423462,50.023285 4.4687009,47.88282 4.5999231,45.690229 4.819993,43.663892 5.3340934,41.737891 6.1794124,39.954841 c 0.8466933,-1.802969 1.8861997,-3.492562 3.1371135,-5.047473 1.2509141,-1.55492 2.5321441,-2.96764 3.8423151,-4.218234 1.328764,-1.229305 3.063048,-2.81092 5.241409,-4.722157 z"
     style="fill:#131516;fill-rule:evenodd;stroke:#131516;stroke-width:0.05997521"
     id="path9"
     inkscape:connector-curvature="0" />
  <g
     transform="matrix(2.3777094,0,0,2.3777094,35.208854,15.724302)"
     style="fill:#000000"
     id="g4281">
    <g
       transform="translate(-94.947,-433.75)"
       style="fill:#000000;display:inline"
       id="g2111">
      <path
         d="m 97.359,444.68428 c -0.626565,0.78306 -1.154,1.23125 -1.849,1.75825 l 0,-2.59453 c 0.158,-0.399 0.391,-0.722 0.7,-0.97 0.308,-0.247 0.62,-0.371 0.936,-0.371 1.475857,0.21415 0.958999,1.46862 0.213,2.17728 z m -1.849,-2.11528 0,-7.27167 -0.563,0 0,11.6172 c 0,0.352 0.096,0.528 0.288,0.528 0.111,0 0.248913,-0.093 0.455,-0.216 1.401908,-0.86339 2.302494,-1.56233 3.20183,-2.79555 0.27803,-0.38125 0.474631,-1.24586 0.07214,-1.84968 -0.251,-0.37656 -0.729309,-0.77208 -1.342329,-0.889 -0.793549,-0.15135 -1.477881,0.24375 -2.111641,0.8767 z"
         style="fill:#000000"
         id="path2117"
         inkscape:connector-curvature="0" />
    </g>
  </g>
  <use
     transform="translate(9.9578464,-18.521593)"
     id="use5266"
     x="0"
     y="0"
     width="1200"
     height="1200"
     xlink:href="#g4281" />
  <use
     transform="translate(19.915694,5.5763934)"
     id="use5324"
     x="0"
     y="0"
     width="1200"
     height="1200"
     xlink:href="#g4281" />
  <use
     transform="translate(29.87354,-11.949412)"
     id="use5326"
     x="0"
     y="0"
     width="1200"
     height="1200"
     xlink:href="#g4281" />
  <use
     transform="translate(39.831388,11.949414)"
     id="use5328"
     x="0"
     y="0"
     width="1200"
     height="1200"
     xlink:href="#g4281" />
  <use
     transform="translate(49.789236,-5.9747051)"
     id="use5330"
     x="0"
     y="0"
     width="1200"
     height="1200"
     xlink:href="#g4281" />
  <use
     transform="translate(59.747082,17.924129)"
     id="use5332"
     x="0"
     y="0"
     width="1200"
     height="1200"
     xlink:href="#g4281" />
</svg>
